<svg version="1.1" id="Layer_1" xmlns="http://www.w3.org/2000/svg" xmlns:xlink="http://www.w3.org/1999/xlink" x="0px" y="0px"
	 width="100%" viewBox="0 0 2000 2000" enable-background="new 0 0 2000 2000" xml:space="preserve">
<path fill="#000000" opacity="1.000000" stroke="none" 
	d="
M1019.000000,2001.000000 
	C679.333313,2001.000000 340.166656,2001.000000 1.000000,2001.000000 
	C1.000000,1334.333374 1.000000,667.666687 1.000000,1.000000 
	C667.666687,1.000000 1334.333374,1.000000 2001.000000,1.000000 
	C2001.000000,667.666687 2001.000000,1334.333374 2001.000000,2001.000000 
	C1673.833374,2001.000000 1346.666626,2001.000000 1019.000000,2001.000000 
M1598.180420,1175.500000 
	C1598.127197,1193.163330 1598.180664,1210.827759 1597.989746,1228.489624 
	C1597.808960,1245.206543 1590.235474,1257.006226 1574.274780,1262.938354 
	C1568.689453,1265.014282 1563.091309,1267.055908 1557.682617,1269.045654 
	C1557.682617,1271.837891 1557.682617,1274.270386 1557.682617,1276.695557 
	C1625.695190,1276.695557 1693.426270,1276.695557 1760.844604,1276.695557 
	C1762.851562,1270.696167 1760.269409,1267.888916 1754.938965,1266.269165 
	C1750.190674,1264.826538 1745.619385,1262.764526 1741.038696,1260.814453 
	C1729.891602,1256.068726 1722.391479,1248.089111 1720.304810,1235.916992 
	C1719.382324,1230.535400 1719.044922,1224.992920 1719.042358,1219.523193 
	C1718.976196,1081.866089 1718.988892,944.209045 1718.997925,806.551941 
	C1718.998047,803.719910 1719.057373,800.884827 1719.193726,798.056274 
	C1719.972534,781.896667 1727.256348,770.268433 1742.726196,764.346008 
	C1746.756714,762.802979 1750.751709,761.166809 1754.767700,759.585632 
	C1761.743042,756.839417 1761.744507,756.843262 1760.888916,749.299866 
	C1693.161865,749.299866 1625.428833,749.299866 1557.868286,749.299866 
	C1556.192749,754.800049 1557.623413,758.038879 1563.329712,759.323975 
	C1566.851929,760.117249 1570.102539,762.042786 1573.561890,763.201477 
	C1590.540771,768.888245 1597.989380,781.214600 1598.015625,798.512939 
	C1598.115234,864.173950 1598.121094,929.835205 1598.142212,995.496338 
	C1598.142334,995.929443 1597.864868,996.362671 1597.733887,996.746216 
	C1534.169067,996.746216 1470.756348,996.746216 1407.031982,996.746216 
	C1407.031982,994.703369 1407.031982,992.900208 1407.031982,991.097046 
	C1407.031982,930.267944 1407.029419,869.438843 1407.038086,808.609741 
	C1407.038574,805.110840 1407.080811,801.610352 1407.191040,798.113281 
	C1407.720337,781.319519 1415.032471,769.275208 1431.324707,763.358521 
	C1436.604492,761.441101 1441.721436,759.075073 1446.708984,756.999146 
	C1446.708984,754.177917 1446.708984,751.745422 1446.708984,749.202393 
	C1379.038818,749.202393 1311.608643,749.202393 1244.016968,749.202393 
	C1244.016968,751.853394 1244.016968,754.302490 1244.016968,756.994995 
	C1250.605225,759.643433 1257.198242,762.348511 1263.832275,764.948914 
	C1276.444946,769.892822 1283.761108,778.945007 1285.151611,792.502075 
	C1285.660278,797.459656 1286.052002,802.456177 1286.053711,807.434998 
	C1286.101318,944.758789 1286.092773,1082.082642 1286.085815,1219.406372 
	C1286.085571,1222.238892 1286.080200,1225.075806 1285.933228,1227.903198 
	C1285.075806,1244.403198 1278.009033,1256.440308 1261.618774,1261.890747 
	C1257.531128,1263.250000 1253.590454,1265.053589 1249.589233,1266.670654 
	C1242.991821,1269.336670 1242.994263,1269.342651 1244.470337,1276.723999 
	C1311.908203,1276.723999 1379.332275,1276.723999 1446.488159,1276.723999 
	C1448.425781,1270.824097 1446.299805,1267.632446 1440.566895,1266.659302 
	C1439.601074,1266.495239 1438.690430,1265.999756 1437.756714,1265.651001 
	C1415.995483,1257.521973 1407.051025,1244.710693 1407.041382,1221.380981 
	C1407.013306,1153.385742 1407.030396,1085.390381 1407.042114,1017.395081 
	C1407.042358,1015.969116 1407.189575,1014.543152 1407.259155,1013.284058 
	C1471.127319,1013.284058 1534.553467,1013.284058 1598.180420,1013.284058 
	C1598.180420,1067.211426 1598.180420,1120.855713 1598.180420,1175.500000 
M997.212341,1071.745850 
	C1002.170898,1071.154053 1007.139160,1070.633789 1012.086304,1069.958618 
	C1040.563843,1066.072510 1068.249756,1059.561646 1093.946777,1046.040771 
	C1116.663208,1034.088257 1136.765869,1019.121643 1151.167236,997.479126 
	C1169.517456,969.902527 1177.535400,939.274963 1177.406616,906.361572 
	C1177.295532,877.975281 1170.882568,851.289978 1155.256592,827.263794 
	C1133.758301,794.208557 1102.994995,774.004944 1065.644775,762.959473 
	C1028.047974,751.840942 989.439575,749.096436 950.531494,749.028442 
	C888.036255,748.919250 825.540649,748.999146 763.045227,748.999146 
	C761.257446,748.999146 759.469727,748.999146 757.826782,748.999146 
	C756.265808,754.498230 757.339722,757.791260 762.998413,759.397217 
	C768.074890,760.838013 772.850708,763.339294 777.757202,765.377502 
	C790.448242,770.649536 797.479370,780.198914 798.968079,793.786133 
	C799.475342,798.416016 799.801697,803.092041 799.803162,807.747070 
	C799.846375,945.237061 799.846558,1082.727051 799.801636,1220.217041 
	C799.800110,1224.870605 799.422241,1229.540405 798.943115,1234.174194 
	C797.479309,1248.331177 790.170166,1257.833618 776.414001,1262.194336 
	C771.985352,1263.598267 767.666565,1265.347046 763.288696,1266.913452 
	C756.359924,1269.392334 756.356689,1269.383423 757.944580,1276.751221 
	C830.207275,1276.751221 902.469971,1276.751221 974.807434,1276.751221 
	C974.807434,1274.056519 974.807434,1271.614624 974.807434,1268.975830 
	C969.143982,1267.272217 963.488953,1265.851196 958.041138,1263.862671 
	C950.898926,1261.255493 943.383484,1259.076538 936.983032,1255.155640 
	C923.747742,1247.047241 919.872620,1233.912598 919.899902,1219.078979 
	C919.986755,1171.915894 919.932007,1124.752441 919.931946,1077.589233 
	C919.931946,1076.487305 919.931946,1075.385498 919.931946,1074.821655 
	C945.749390,1073.809204 971.021057,1072.818115 997.212341,1071.745850 
M381.065887,889.752258 
	C382.064392,886.236877 383.030304,882.711914 384.066437,879.207703 
	C392.782257,849.731140 404.873810,821.625183 425.878448,798.959595 
	C466.559479,755.061951 517.173889,742.330017 574.654968,756.248657 
	C592.557190,760.583496 607.525818,770.369202 617.595337,786.602051 
	C634.156616,813.299866 651.045959,839.795227 667.458862,866.583130 
	C670.353943,871.308167 673.459534,873.078186 678.820435,871.613953 
	C678.870911,871.057251 678.996765,870.421570 678.976013,869.790710 
	C677.957947,838.810608 676.977417,807.828979 675.754395,776.856873 
	C675.691589,775.266541 673.871826,773.130737 672.311279,772.304321 
	C633.351624,751.672668 592.093201,738.978333 547.945374,735.728516 
	C498.780060,732.109375 450.680176,736.840576 404.734528,755.180237 
	C309.875610,793.043762 256.944519,864.148010 242.140808,964.336304 
	C237.369888,996.624817 237.983810,1029.128662 242.032364,1061.521240 
	C247.149460,1102.463623 259.256317,1140.926270 282.041260,1175.748047 
	C309.574097,1217.826050 346.606659,1248.383789 392.848663,1267.754272 
	C447.515381,1290.654175 504.632599,1295.541748 562.876465,1288.704224 
	C603.471436,1283.938477 641.991638,1271.458252 678.637024,1253.269897 
	C681.188354,1252.003662 682.201416,1250.648926 682.248413,1247.729980 
	C682.594788,1226.234253 683.274109,1204.743652 683.588806,1183.247803 
	C683.812683,1167.960815 683.632202,1152.667969 683.632202,1137.324097 
	C676.759155,1136.528931 676.756592,1136.527832 673.870850,1142.966431 
	C670.543762,1150.389893 667.357666,1157.879883 663.872925,1165.228394 
	C652.072937,1190.111816 640.326233,1215.022827 628.215454,1239.755127 
	C624.087646,1248.184814 617.016724,1254.014404 608.739624,1258.495605 
	C577.224304,1275.557739 543.315735,1278.699707 508.797485,1273.604614 
	C458.145691,1266.127930 422.174225,1238.102905 399.898560,1191.924561 
	C383.688141,1158.320068 375.975525,1122.647949 372.032715,1085.911987 
	C368.611755,1054.037720 368.084198,1022.055237 368.941284,990.048950 
	C369.838959,956.527344 373.032074,923.255432 381.065887,889.752258 
M679.996094,1404.504883 
	C679.996094,1420.590088 679.996094,1436.675293 679.996094,1452.914795 
	C691.669006,1452.914795 702.816040,1453.321289 713.920166,1452.804688 
	C725.907410,1452.246948 733.111450,1444.288940 731.842712,1434.038086 
	C731.016785,1427.365601 726.777649,1423.291504 720.728027,1420.488281 
	C727.555359,1416.209473 729.536926,1410.256836 728.292969,1403.048584 
	C727.112427,1396.207886 722.696838,1391.332153 716.269958,1390.609253 
	C704.337708,1389.266846 692.243896,1389.361206 679.996094,1388.848145 
	C679.996094,1394.528442 679.996094,1399.017944 679.996094,1404.504883 
M1180.110474,1450.724121 
	C1183.143677,1451.735596 1186.176880,1452.747070 1189.210083,1453.758667 
	C1189.396484,1453.264648 1189.583008,1452.770752 1189.769409,1452.276733 
	C1184.469360,1444.100098 1179.169312,1435.923462 1173.778320,1427.606689 
	C1174.593994,1427.280640 1175.019409,1427.096680 1175.454224,1426.938965 
	C1185.721436,1423.212280 1189.811646,1417.135132 1188.868286,1407.002319 
	C1187.981079,1397.470215 1181.581421,1390.530396 1171.237061,1389.856323 
	C1160.018433,1389.125366 1148.715332,1389.690552 1137.270020,1389.690552 
	C1137.270020,1410.796387 1137.270020,1431.829346 1137.270020,1452.844604 
	C1139.676392,1452.844604 1141.805542,1452.844604 1144.210449,1452.844604 
	C1144.210449,1444.881226 1144.210449,1437.085693 1144.210449,1428.782715 
	C1150.604614,1428.782715 1156.747681,1428.541016 1162.850708,1428.927979 
	C1164.716919,1429.046265 1167.082031,1430.465088 1168.172241,1432.021362 
	C1172.265747,1437.865112 1175.926636,1444.011841 1180.110474,1450.724121 
M1261.850342,1416.217773 
	C1259.582520,1435.688721 1270.316406,1450.551147 1288.774414,1453.497070 
	C1306.771484,1456.369751 1322.904175,1444.668457 1325.734497,1426.689575 
	C1328.558228,1408.752930 1317.054932,1391.849976 1300.164673,1389.117065 
	C1280.974609,1386.012085 1265.282471,1396.788940 1261.850342,1416.217773 
M915.666199,1453.861328 
	C922.102234,1452.558838 929.162415,1452.511963 934.842407,1449.688477 
	C946.147034,1444.069336 945.729004,1428.892212 934.636353,1422.850220 
	C931.469788,1421.125366 927.929993,1420.007568 924.462158,1418.930786 
	C918.129395,1416.964111 911.529480,1415.703125 905.438293,1413.186401 
	C902.878967,1412.128906 900.163940,1408.871948 899.595947,1406.177246 
	C898.751831,1402.172241 901.584778,1399.100220 905.456543,1397.335571 
	C916.553284,1392.278076 928.848572,1396.248413 934.544373,1406.711304 
	C936.718689,1406.711304 938.829041,1406.711304 942.794739,1406.711304 
	C940.112305,1402.201538 938.594971,1398.079468 935.787109,1395.228027 
	C927.767334,1387.083862 907.552612,1386.312134 898.482422,1393.294800 
	C889.350098,1400.325562 890.060852,1412.987061 900.177307,1418.435913 
	C904.067017,1420.531006 908.503662,1421.650269 912.749512,1423.035034 
	C918.575134,1424.935303 924.525024,1426.473511 930.287048,1428.541992 
	C933.621887,1429.739258 935.753723,1432.385132 935.620483,1436.196899 
	C935.480164,1440.210205 933.620056,1443.720459 929.806824,1444.680176 
	C924.733521,1445.957153 919.338013,1446.881836 914.157715,1446.590820 
	C906.172546,1446.142090 899.105835,1443.392090 897.651550,1434.223267 
	C894.953674,1434.223267 892.662781,1434.223267 890.324829,1434.223267 
	C891.121948,1441.786499 894.407593,1447.657959 901.282532,1450.527588 
	C905.494812,1452.285767 910.236694,1452.775146 915.666199,1453.861328 
M1033.987671,1418.500000 
	C1033.987671,1429.939819 1033.987671,1441.379639 1033.987671,1452.863281 
	C1036.627197,1452.863281 1038.754517,1452.863281 1041.296387,1452.863281 
	C1041.296387,1434.142090 1041.296387,1415.567017 1041.296387,1396.499268 
	C1048.776733,1396.499268 1055.855591,1396.499268 1063.017700,1396.499268 
	C1063.017700,1393.802856 1063.017700,1391.618896 1063.017700,1389.497314 
	C1045.823364,1389.497314 1029.057861,1389.497314 1012.207397,1389.497314 
	C1012.207397,1391.915039 1012.207397,1394.133301 1012.207397,1396.480713 
	C1019.555359,1396.480713 1026.541992,1396.480713 1033.987671,1396.480713 
	C1033.987671,1403.570557 1033.987671,1410.535278 1033.987671,1418.500000 
M808.008545,1428.500000 
	C808.008545,1436.600342 808.008545,1444.700684 808.008545,1452.776855 
	C810.659912,1452.776855 812.751404,1452.776855 814.787842,1452.776855 
	C814.787842,1431.536377 814.787842,1410.523560 814.787842,1389.684814 
	C812.304993,1389.684814 810.237366,1389.684814 808.008545,1389.684814 
	C808.008545,1402.529419 808.008545,1415.014648 808.008545,1428.500000 
M1297.456787,1374.098267 
	C1291.969604,1374.144043 1289.515869,1376.667603 1287.561768,1384.327393 
	C1295.471558,1385.527710 1297.474121,1378.405029 1301.654297,1374.098267 
	C1300.532715,1374.098267 1299.411133,1374.098267 1297.456787,1374.098267 
z"/>
<path fill="#FFFFFF" opacity="1.000000" stroke="none" 
	d="
M1598.180420,1175.000000 
	C1598.180420,1120.855713 1598.180420,1067.211426 1598.180420,1013.284058 
	C1534.553467,1013.284058 1471.127319,1013.284058 1407.259155,1013.284058 
	C1407.189575,1014.543152 1407.042358,1015.969116 1407.042114,1017.395081 
	C1407.030396,1085.390381 1407.013306,1153.385742 1407.041382,1221.380981 
	C1407.051025,1244.710693 1415.995483,1257.521973 1437.756714,1265.651001 
	C1438.690430,1265.999756 1439.601074,1266.495239 1440.566895,1266.659302 
	C1446.299805,1267.632446 1448.425781,1270.824097 1446.488159,1276.723999 
	C1379.332275,1276.723999 1311.908203,1276.723999 1244.470337,1276.723999 
	C1242.994263,1269.342651 1242.991821,1269.336670 1249.589233,1266.670654 
	C1253.590454,1265.053589 1257.531128,1263.250000 1261.618774,1261.890747 
	C1278.009033,1256.440308 1285.075806,1244.403198 1285.933228,1227.903198 
	C1286.080200,1225.075806 1286.085571,1222.238892 1286.085815,1219.406372 
	C1286.092773,1082.082642 1286.101318,944.758789 1286.053711,807.434998 
	C1286.052002,802.456177 1285.660278,797.459656 1285.151611,792.502075 
	C1283.761108,778.945007 1276.444946,769.892822 1263.832275,764.948914 
	C1257.198242,762.348511 1250.605225,759.643433 1244.016968,756.994995 
	C1244.016968,754.302490 1244.016968,751.853394 1244.016968,749.202393 
	C1311.608643,749.202393 1379.038818,749.202393 1446.708984,749.202393 
	C1446.708984,751.745422 1446.708984,754.177917 1446.708984,756.999146 
	C1441.721436,759.075073 1436.604492,761.441101 1431.324707,763.358521 
	C1415.032471,769.275208 1407.720337,781.319519 1407.191040,798.113281 
	C1407.080811,801.610352 1407.038574,805.110840 1407.038086,808.609741 
	C1407.029419,869.438843 1407.031982,930.267944 1407.031982,991.097046 
	C1407.031982,992.900208 1407.031982,994.703369 1407.031982,996.746216 
	C1470.756348,996.746216 1534.169067,996.746216 1597.733887,996.746216 
	C1597.864868,996.362671 1598.142334,995.929443 1598.142212,995.496338 
	C1598.121094,929.835205 1598.115234,864.173950 1598.015625,798.512939 
	C1597.989380,781.214600 1590.540771,768.888245 1573.561890,763.201477 
	C1570.102539,762.042786 1566.851929,760.117249 1563.329712,759.323975 
	C1557.623413,758.038879 1556.192749,754.800049 1557.868286,749.299866 
	C1625.428833,749.299866 1693.161865,749.299866 1760.888916,749.299866 
	C1761.744507,756.843262 1761.743042,756.839417 1754.767700,759.585632 
	C1750.751709,761.166809 1746.756714,762.802979 1742.726196,764.346008 
	C1727.256348,770.268433 1719.972534,781.896667 1719.193726,798.056274 
	C1719.057373,800.884827 1718.998047,803.719910 1718.997925,806.551941 
	C1718.988892,944.209045 1718.976196,1081.866089 1719.042358,1219.523193 
	C1719.044922,1224.992920 1719.382324,1230.535400 1720.304810,1235.916992 
	C1722.391479,1248.089111 1729.891602,1256.068726 1741.038696,1260.814453 
	C1745.619385,1262.764526 1750.190674,1264.826538 1754.938965,1266.269165 
	C1760.269409,1267.888916 1762.851562,1270.696167 1760.844604,1276.695557 
	C1693.426270,1276.695557 1625.695190,1276.695557 1557.682617,1276.695557 
	C1557.682617,1274.270386 1557.682617,1271.837891 1557.682617,1269.045654 
	C1563.091309,1267.055908 1568.689453,1265.014282 1574.274780,1262.938354 
	C1590.235474,1257.006226 1597.808960,1245.206543 1597.989746,1228.489624 
	C1598.180664,1210.827759 1598.127197,1193.163330 1598.180420,1175.000000 
z"/>
<path fill="#FEFEFE" opacity="1.000000" stroke="none" 
	d="
M996.752563,1071.786377 
	C971.021057,1072.818115 945.749390,1073.809204 919.931946,1074.821655 
	C919.931946,1075.385498 919.931946,1076.487305 919.931946,1077.589233 
	C919.932007,1124.752441 919.986755,1171.915894 919.899902,1219.078979 
	C919.872620,1233.912598 923.747742,1247.047241 936.983032,1255.155640 
	C943.383484,1259.076538 950.898926,1261.255493 958.041138,1263.862671 
	C963.488953,1265.851196 969.143982,1267.272217 974.807434,1268.975830 
	C974.807434,1271.614624 974.807434,1274.056519 974.807434,1276.751221 
	C902.469971,1276.751221 830.207275,1276.751221 757.944458,1276.755615 
	C756.356689,1269.383423 756.359924,1269.392334 763.288696,1266.913452 
	C767.666565,1265.347046 771.985352,1263.598267 776.414001,1262.194336 
	C790.170166,1257.833618 797.479309,1248.331177 798.943115,1234.174194 
	C799.422241,1229.540405 799.800110,1224.870605 799.801636,1220.217041 
	C799.846558,1082.727051 799.846375,945.237061 799.803162,807.747070 
	C799.801697,803.092041 799.475342,798.416016 798.968079,793.786133 
	C797.479370,780.198914 790.448242,770.649536 777.757202,765.377502 
	C772.850708,763.339294 768.074890,760.838013 762.998413,759.397217 
	C757.339722,757.791260 756.265808,754.498230 757.826782,748.999146 
	C759.469727,748.999146 761.257446,748.999146 763.045227,748.999146 
	C825.540649,748.999146 888.036255,748.919250 950.531494,749.028442 
	C989.439575,749.096436 1028.047974,751.840942 1065.644775,762.959473 
	C1102.994995,774.004944 1133.758301,794.208557 1155.256592,827.263794 
	C1170.882568,851.289978 1177.295532,877.975281 1177.406616,906.361572 
	C1177.535400,939.274963 1169.517456,969.902527 1151.167236,997.479126 
	C1136.765869,1019.121643 1116.663208,1034.088257 1093.946777,1046.040771 
	C1068.249756,1059.561646 1040.563843,1066.072510 1012.086304,1069.958618 
	C1007.139160,1070.633789 1002.170898,1071.154053 996.752563,1071.786377 
M995.742371,1052.283813 
	C1018.678223,1046.349609 1035.388672,1032.773438 1045.954956,1011.555725 
	C1053.838745,995.724548 1057.773071,978.799194 1060.030273,961.411743 
	C1063.496338,934.711914 1063.870605,907.915466 1061.924683,881.096497 
	C1060.488525,861.301941 1057.430664,841.821045 1050.183716,823.143188 
	C1040.474365,798.119019 1023.872314,780.426392 997.858276,772.168884 
	C972.480774,764.113403 946.398376,764.702942 920.255859,765.150269 
	C920.255859,862.815735 920.255859,960.182922 920.255859,1057.822266 
	C945.494019,1057.553223 970.542786,1059.593872 995.742371,1052.283813 
z"/>
<path fill="#FEFEFE" opacity="1.000000" stroke="none" 
	d="
M381.013947,890.161255 
	C373.032074,923.255432 369.838959,956.527344 368.941284,990.048950 
	C368.084198,1022.055237 368.611755,1054.037720 372.032715,1085.911987 
	C375.975525,1122.647949 383.688141,1158.320068 399.898560,1191.924561 
	C422.174225,1238.102905 458.145691,1266.127930 508.797485,1273.604614 
	C543.315735,1278.699707 577.224304,1275.557739 608.739624,1258.495605 
	C617.016724,1254.014404 624.087646,1248.184814 628.215454,1239.755127 
	C640.326233,1215.022827 652.072937,1190.111816 663.872925,1165.228394 
	C667.357666,1157.879883 670.543762,1150.389893 673.870850,1142.966431 
	C676.756592,1136.527832 676.759155,1136.528931 683.632202,1137.324097 
	C683.632202,1152.667969 683.812683,1167.960815 683.588806,1183.247803 
	C683.274109,1204.743652 682.594788,1226.234253 682.248413,1247.729980 
	C682.201416,1250.648926 681.188354,1252.003662 678.637024,1253.269897 
	C641.991638,1271.458252 603.471436,1283.938477 562.876465,1288.704224 
	C504.632599,1295.541748 447.515381,1290.654175 392.848663,1267.754272 
	C346.606659,1248.383789 309.574097,1217.826050 282.041260,1175.748047 
	C259.256317,1140.926270 247.149460,1102.463623 242.032364,1061.521240 
	C237.983810,1029.128662 237.369888,996.624817 242.140808,964.336304 
	C256.944519,864.148010 309.875610,793.043762 404.734528,755.180237 
	C450.680176,736.840576 498.780060,732.109375 547.945374,735.728516 
	C592.093201,738.978333 633.351624,751.672668 672.311279,772.304321 
	C673.871826,773.130737 675.691589,775.266541 675.754395,776.856873 
	C676.977417,807.828979 677.957947,838.810608 678.976013,869.790710 
	C678.996765,870.421570 678.870911,871.057251 678.820435,871.613953 
	C673.459534,873.078186 670.353943,871.308167 667.458862,866.583130 
	C651.045959,839.795227 634.156616,813.299866 617.595337,786.602051 
	C607.525818,770.369202 592.557190,760.583496 574.654968,756.248657 
	C517.173889,742.330017 466.559479,755.061951 425.878448,798.959595 
	C404.873810,821.625183 392.782257,849.731140 384.066437,879.207703 
	C383.030304,882.711914 382.064392,886.236877 381.013947,890.161255 
z"/>
<path fill="#F8F8F8" opacity="1.000000" stroke="none" 
	d="
M679.996094,1404.006104 
	C679.996094,1399.017944 679.996094,1394.528442 679.996094,1388.848145 
	C692.243896,1389.361206 704.337708,1389.266846 716.269958,1390.609253 
	C722.696838,1391.332153 727.112427,1396.207886 728.292969,1403.048584 
	C729.536926,1410.256836 727.555359,1416.209473 720.728027,1420.488281 
	C726.777649,1423.291504 731.016785,1427.365601 731.842712,1434.038086 
	C733.111450,1444.288940 725.907410,1452.246948 713.920166,1452.804688 
	C702.816040,1453.321289 691.669006,1452.914795 679.996094,1452.914795 
	C679.996094,1436.675293 679.996094,1420.590088 679.996094,1404.006104 
M692.758972,1424.415405 
	C690.992065,1424.415405 689.225098,1424.415405 687.479980,1424.415405 
	C687.479980,1431.994751 687.479980,1438.890503 687.479980,1445.970215 
	C696.538208,1445.970215 705.331665,1446.339478 714.078857,1445.861938 
	C722.163818,1445.420654 726.430664,1439.116577 723.945068,1432.131348 
	C722.334229,1427.604370 718.680725,1425.231201 714.096313,1424.931763 
	C707.318359,1424.489136 700.506653,1424.562012 692.758972,1424.415405 
M702.419800,1396.245239 
	C697.481750,1396.245239 692.543762,1396.245239 687.465942,1396.245239 
	C687.465942,1403.715942 687.465942,1410.606567 687.465942,1417.629150 
	C695.680664,1417.629150 703.656067,1418.065186 711.558289,1417.491821 
	C717.932617,1417.029419 721.286377,1412.717773 721.213989,1406.908325 
	C721.139954,1400.965088 717.814087,1397.347778 711.352905,1396.523315 
	C708.727783,1396.188477 706.042664,1396.323853 702.419800,1396.245239 
z"/>
<path fill="#F7F7F7" opacity="1.000000" stroke="none" 
	d="
M1179.930176,1450.384521 
	C1175.926636,1444.011841 1172.265747,1437.865112 1168.172241,1432.021362 
	C1167.082031,1430.465088 1164.716919,1429.046265 1162.850708,1428.927979 
	C1156.747681,1428.541016 1150.604614,1428.782715 1144.210449,1428.782715 
	C1144.210449,1437.085693 1144.210449,1444.881226 1144.210449,1452.844604 
	C1141.805542,1452.844604 1139.676392,1452.844604 1137.270020,1452.844604 
	C1137.270020,1431.829346 1137.270020,1410.796387 1137.270020,1389.690552 
	C1148.715332,1389.690552 1160.018433,1389.125366 1171.237061,1389.856323 
	C1181.581421,1390.530396 1187.981079,1397.470215 1188.868286,1407.002319 
	C1189.811646,1417.135132 1185.721436,1423.212280 1175.454224,1426.938965 
	C1175.019409,1427.096680 1174.593994,1427.280640 1173.778320,1427.606689 
	C1179.169312,1435.923462 1184.469360,1444.100098 1189.769409,1452.276733 
	C1189.583008,1452.770752 1189.396484,1453.264648 1189.210083,1453.758667 
	C1186.176880,1452.747070 1183.143677,1451.735596 1179.930176,1450.384521 
M1177.706665,1418.277222 
	C1184.666382,1410.452637 1181.967773,1398.748657 1172.074707,1397.315918 
	C1163.056641,1396.009888 1153.700439,1397.039307 1144.547607,1397.039307 
	C1144.547607,1405.165771 1144.547607,1413.375000 1144.547607,1421.793213 
	C1152.356934,1421.793213 1159.833618,1422.094849 1167.266479,1421.656128 
	C1170.601074,1421.459229 1173.848145,1419.780640 1177.706665,1418.277222 
z"/>
<path fill="#F6F6F6" opacity="1.000000" stroke="none" 
	d="
M1261.896240,1415.792480 
	C1265.282471,1396.788940 1280.974609,1386.012085 1300.164673,1389.117065 
	C1317.054932,1391.849976 1328.558228,1408.752930 1325.734497,1426.689575 
	C1322.904175,1444.668457 1306.771484,1456.369751 1288.774414,1453.497070 
	C1270.316406,1450.551147 1259.582520,1435.688721 1261.896240,1415.792480 
M1268.867188,1422.365234 
	C1269.588989,1436.449463 1277.973511,1445.387207 1291.652588,1446.654541 
	C1305.167358,1447.906250 1316.152954,1439.394775 1318.285522,1426.019287 
	C1320.605347,1411.469360 1312.999146,1399.289185 1299.747681,1396.333252 
	C1282.838501,1392.561523 1269.340210,1403.537231 1268.867188,1422.365234 
z"/>
<path fill="#F6F6F6" opacity="1.000000" stroke="none" 
	d="
M915.203491,1453.847778 
	C910.236694,1452.775146 905.494812,1452.285767 901.282532,1450.527588 
	C894.407593,1447.657959 891.121948,1441.786499 890.324829,1434.223267 
	C892.662781,1434.223267 894.953674,1434.223267 897.651550,1434.223267 
	C899.105835,1443.392090 906.172546,1446.142090 914.157715,1446.590820 
	C919.338013,1446.881836 924.733521,1445.957153 929.806824,1444.680176 
	C933.620056,1443.720459 935.480164,1440.210205 935.620483,1436.196899 
	C935.753723,1432.385132 933.621887,1429.739258 930.287048,1428.541992 
	C924.525024,1426.473511 918.575134,1424.935303 912.749512,1423.035034 
	C908.503662,1421.650269 904.067017,1420.531006 900.177307,1418.435913 
	C890.060852,1412.987061 889.350098,1400.325562 898.482422,1393.294800 
	C907.552612,1386.312134 927.767334,1387.083862 935.787109,1395.228027 
	C938.594971,1398.079468 940.112305,1402.201538 942.794739,1406.711304 
	C938.829041,1406.711304 936.718689,1406.711304 934.544373,1406.711304 
	C928.848572,1396.248413 916.553284,1392.278076 905.456543,1397.335571 
	C901.584778,1399.100220 898.751831,1402.172241 899.595947,1406.177246 
	C900.163940,1408.871948 902.878967,1412.128906 905.438293,1413.186401 
	C911.529480,1415.703125 918.129395,1416.964111 924.462158,1418.930786 
	C927.929993,1420.007568 931.469788,1421.125366 934.636353,1422.850220 
	C945.729004,1428.892212 946.147034,1444.069336 934.842407,1449.688477 
	C929.162415,1452.511963 922.102234,1452.558838 915.203491,1453.847778 
z"/>
<path fill="#F8F8F8" opacity="1.000000" stroke="none" 
	d="
M1033.987671,1418.000000 
	C1033.987671,1410.535278 1033.987671,1403.570557 1033.987671,1396.480713 
	C1026.541992,1396.480713 1019.555359,1396.480713 1012.207397,1396.480713 
	C1012.207397,1394.133301 1012.207397,1391.915039 1012.207397,1389.497314 
	C1029.057861,1389.497314 1045.823364,1389.497314 1063.017700,1389.497314 
	C1063.017700,1391.618896 1063.017700,1393.802856 1063.017700,1396.499268 
	C1055.855591,1396.499268 1048.776733,1396.499268 1041.296387,1396.499268 
	C1041.296387,1415.567017 1041.296387,1434.142090 1041.296387,1452.863281 
	C1038.754517,1452.863281 1036.627197,1452.863281 1033.987671,1452.863281 
	C1033.987671,1441.379639 1033.987671,1429.939819 1033.987671,1418.000000 
z"/>
<path fill="#FEFEFE" opacity="1.000000" stroke="none" 
	d="
M808.008545,1428.000000 
	C808.008545,1415.014648 808.008545,1402.529419 808.008545,1389.684814 
	C810.237366,1389.684814 812.304993,1389.684814 814.787842,1389.684814 
	C814.787842,1410.523560 814.787842,1431.536377 814.787842,1452.776855 
	C812.751404,1452.776855 810.659912,1452.776855 808.008545,1452.776855 
	C808.008545,1444.700684 808.008545,1436.600342 808.008545,1428.000000 
z"/>
<path fill="#E8E8E8" opacity="1.000000" stroke="none" 
	d="
M1297.873169,1374.098267 
	C1299.411133,1374.098267 1300.532715,1374.098267 1301.654297,1374.098267 
	C1297.474121,1378.405029 1295.471558,1385.527710 1287.561768,1384.327393 
	C1289.515869,1376.667603 1291.969604,1374.144043 1297.873169,1374.098267 
z"/>
<path fill="#000000" opacity="1.000000" stroke="none" 
	d="
M995.367310,1052.446045 
	C970.542786,1059.593872 945.494019,1057.553223 920.255859,1057.822266 
	C920.255859,960.182922 920.255859,862.815735 920.255859,765.150269 
	C946.398376,764.702942 972.480774,764.113403 997.858276,772.168884 
	C1023.872314,780.426392 1040.474365,798.119019 1050.183716,823.143188 
	C1057.430664,841.821045 1060.488525,861.301941 1061.924683,881.096497 
	C1063.870605,907.915466 1063.496338,934.711914 1060.030273,961.411743 
	C1057.773071,978.799194 1053.838745,995.724548 1045.954956,1011.555725 
	C1035.388672,1032.773438 1018.678223,1046.349609 995.367310,1052.446045 
z"/>
<path fill="#070707" opacity="1.000000" stroke="none" 
	d="
M693.234131,1424.415405 
	C700.506653,1424.562012 707.318359,1424.489136 714.096313,1424.931763 
	C718.680725,1425.231201 722.334229,1427.604370 723.945068,1432.131348 
	C726.430664,1439.116577 722.163818,1445.420654 714.078857,1445.861938 
	C705.331665,1446.339478 696.538208,1445.970215 687.479980,1445.970215 
	C687.479980,1438.890503 687.479980,1431.994751 687.479980,1424.415405 
	C689.225098,1424.415405 690.992065,1424.415405 693.234131,1424.415405 
z"/>
<path fill="#070707" opacity="1.000000" stroke="none" 
	d="
M702.902344,1396.245239 
	C706.042664,1396.323853 708.727783,1396.188477 711.352905,1396.523315 
	C717.814087,1397.347778 721.139954,1400.965088 721.213989,1406.908325 
	C721.286377,1412.717773 717.932617,1417.029419 711.558289,1417.491821 
	C703.656067,1418.065186 695.680664,1417.629150 687.465942,1417.629150 
	C687.465942,1410.606567 687.465942,1403.715942 687.465942,1396.245239 
	C692.543762,1396.245239 697.481750,1396.245239 702.902344,1396.245239 
z"/>
<path fill="#070707" opacity="1.000000" stroke="none" 
	d="
M1177.420898,1418.525757 
	C1173.848145,1419.780640 1170.601074,1421.459229 1167.266479,1421.656128 
	C1159.833618,1422.094849 1152.356934,1421.793213 1144.547607,1421.793213 
	C1144.547607,1413.375000 1144.547607,1405.165771 1144.547607,1397.039307 
	C1153.700439,1397.039307 1163.056641,1396.009888 1172.074707,1397.315918 
	C1181.967773,1398.748657 1184.666382,1410.452637 1177.420898,1418.525757 
z"/>
<path fill="#020202" opacity="1.000000" stroke="none" 
	d="
M1268.857910,1421.911499 
	C1269.340210,1403.537231 1282.838501,1392.561523 1299.747681,1396.333252 
	C1312.999146,1399.289185 1320.605347,1411.469360 1318.285522,1426.019287 
	C1316.152954,1439.394775 1305.167358,1447.906250 1291.652588,1446.654541 
	C1277.973511,1445.387207 1269.588989,1436.449463 1268.857910,1421.911499 
z"/>
</svg>