<svg version="1.1" id="Layer_1" xmlns="http://www.w3.org/2000/svg" xmlns:xlink="http://www.w3.org/1999/xlink" x="0px" y="0px"
	 width="100%" viewBox="0 0 1024 1024" enable-background="new 0 0 1024 1024" xml:space="preserve">
<path fill="#000000" opacity="1.000000" stroke="none" 
	d="
M721.340576,579.000122 
	C721.339539,594.329529 721.322021,609.158997 721.341675,623.988403 
	C721.359192,637.223145 725.258606,643.056213 737.351257,648.121460 
	C739.453735,649.002075 742.280762,649.544922 741.697144,652.666748 
	C741.079773,655.969482 738.065918,655.035706 735.934326,655.040466 
	C704.776123,655.110352 673.617615,655.112671 642.459351,655.056580 
	C640.324219,655.052734 637.379761,655.878174 636.885132,652.457275 
	C636.425049,649.275085 639.297363,648.907043 641.300598,647.914001 
	C642.192322,647.471985 643.158813,647.182495 644.085388,646.809021 
	C655.373413,642.258606 658.600403,637.538879 658.641907,625.179260 
	C658.693359,609.850159 658.652100,594.520752 658.652954,579.191467 
	C658.656189,524.705811 658.660400,470.220123 658.663940,415.734467 
	C658.664185,412.737183 658.376526,409.781128 658.003784,406.793915 
	C657.100769,399.556335 653.276245,394.935211 646.571960,392.419830 
	C643.923462,391.426147 641.326172,390.290863 638.731018,389.161682 
	C637.124817,388.462860 636.609009,387.133301 636.932861,385.468323 
	C637.277344,383.697571 638.733337,383.703827 640.053833,383.680908 
	C643.385376,383.623108 646.718262,383.639557 650.050659,383.638245 
	C678.876404,383.626831 707.702148,383.599487 736.527771,383.650116 
	C738.451477,383.653473 741.241211,382.467102 741.742798,385.814240 
	C742.168640,388.655823 739.816589,389.353577 737.818787,390.205078 
	C736.899658,390.596832 735.990784,391.031708 735.040100,391.327545 
	C725.596863,394.265656 721.440857,401.079590 721.410828,410.544800 
	C721.309998,442.369293 721.382263,474.194305 721.300903,506.018921 
	C721.292969,509.127655 722.748108,510.208740 725.512085,510.204346 
	C729.004700,510.198792 732.497559,510.093536 735.989746,510.114532 
	C760.311462,510.260864 784.632996,510.439789 808.954712,510.583984 
	C817.697510,510.635803 818.023254,510.335205 818.034058,501.735504 
	C818.071411,472.076843 818.113831,442.418091 818.067993,412.759491 
	C818.046692,398.996429 815.497803,395.477661 802.563965,390.514313 
	C801.477478,390.097351 800.388916,389.671936 799.345032,389.161041 
	C797.960449,388.483429 797.624084,387.264984 797.745117,385.812378 
	C797.895447,384.006989 799.170593,383.770752 800.570435,383.709778 
	C801.734985,383.659027 802.902222,383.652374 804.068237,383.651978 
	C834.893433,383.641571 865.718689,383.634399 896.543884,383.627533 
	C897.376953,383.627350 898.211060,383.612366 899.042969,383.645996 
	C900.707703,383.713257 902.552307,383.562988 902.782410,385.930847 
	C902.978455,387.948944 901.731201,388.929810 900.036743,389.581360 
	C898.172058,390.298309 896.358521,391.158600 894.469971,391.801483 
	C885.156433,394.972168 881.219604,401.631897 881.263306,411.258423 
	C881.365479,433.751984 881.285339,456.246399 881.284241,478.740448 
	C881.281860,527.394287 881.275330,576.048157 881.287231,624.702026 
	C881.290588,638.202576 884.064880,642.149902 896.540649,647.328308 
	C899.063232,648.375305 903.484253,648.369019 902.668884,652.515015 
	C901.863342,656.611023 897.746521,655.006348 895.053955,655.016479 
	C864.895691,655.130432 834.736755,655.088745 804.578064,655.084595 
	C803.245728,655.084412 801.911560,655.077026 800.581421,655.009888 
	C798.939392,654.927063 797.645752,654.326599 797.407898,652.477661 
	C797.186157,650.754211 797.936523,649.571716 799.544373,648.965637 
	C802.035950,648.026428 804.587952,647.232483 807.031738,646.184448 
	C813.754761,643.301392 817.748108,638.376587 817.809021,630.841736 
	C817.940979,614.516052 818.018799,598.189697 818.051025,581.863525 
	C818.087219,563.535095 818.051147,545.206604 818.041321,526.878113 
	C818.037720,520.229309 817.763000,519.900574 810.936157,519.899048 
	C786.442627,519.893616 761.949097,519.951599 737.455566,519.943665 
	C733.962402,519.942566 730.437744,519.960144 726.984253,519.522339 
	C722.536926,518.958618 721.201843,520.596191 721.253662,525.018372 
	C721.462646,542.843506 721.340332,560.672485 721.340576,579.000122 
z"/>
<path fill="#000000" opacity="1.000000" stroke="none" 
	d="
M513.234253,384.639404 
	C529.198975,385.961060 544.468994,388.639618 558.659119,395.188324 
	C585.639282,407.639587 601.546265,428.388855 603.480713,458.528259 
	C605.417114,488.698242 595.918884,513.880432 569.915894,531.313477 
	C555.644592,540.881348 539.689819,545.768494 522.881531,548.300476 
	C507.865784,550.562439 492.748810,551.358215 477.587280,551.089294 
	C473.452087,551.015991 472.104126,552.443604 472.131744,556.558105 
	C472.286102,579.548462 472.166809,602.540527 472.248749,625.531616 
	C472.285217,635.757874 476.841827,642.077637 486.447235,645.513916 
	C490.049072,646.802490 493.753387,647.802246 497.394714,648.983826 
	C499.088470,649.533325 500.431427,650.463623 500.167877,652.553833 
	C499.883728,654.807861 498.093719,654.871765 496.426666,654.992432 
	C495.099823,655.088440 493.762726,655.057800 492.430176,655.058228 
	C460.941956,655.068481 429.453735,655.077148 397.965515,655.078918 
	C395.800079,655.079041 393.631104,655.088135 391.470367,654.971313 
	C389.786499,654.880127 388.048889,654.703003 387.837677,652.419983 
	C387.646393,650.351990 388.945007,649.418823 390.603302,648.788086 
	C392.158997,648.196350 393.711639,647.574463 395.309296,647.118958 
	C403.750458,644.712585 408.809143,639.552063 409.146301,630.426697 
	C409.238281,627.937317 409.616486,625.453247 409.617401,622.966614 
	C409.642822,554.325623 409.645264,485.684601 409.606964,417.043610 
	C409.605225,413.894226 409.169403,410.746429 408.970886,407.595673 
	C408.497803,400.088318 404.348267,395.355560 397.644592,392.553040 
	C395.187347,391.525757 392.702667,390.564301 390.242737,389.543304 
	C388.512482,388.825226 387.582397,387.577026 387.898560,385.630066 
	C388.237091,383.545349 389.928802,383.785034 391.384552,383.670166 
	C392.047180,383.617920 392.716583,383.646576 393.382935,383.646912 
	C429.369385,383.665253 465.355896,383.657257 501.342194,383.743591 
	C505.154541,383.752747 508.965576,384.315887 513.234253,384.639404 
M476.854279,541.604919 
	C484.346680,541.671265 491.811798,541.472778 499.297089,540.815125 
	C520.306641,538.969604 534.075500,527.664795 539.703796,507.264893 
	C543.733032,492.661133 544.182983,477.723846 543.988281,462.721710 
	C543.814819,449.362244 542.776917,436.134888 538.166992,423.421631 
	C532.618530,408.119965 522.147705,398.642181 506.089691,395.032745 
	C497.027649,392.995911 487.935608,392.968262 478.794586,392.914307 
	C472.281769,392.875824 472.201630,393.040710 472.201324,399.716156 
	C472.199677,435.358765 472.203400,471.001373 472.206451,506.643982 
	C472.207306,516.637207 472.229218,526.630493 472.203705,536.623657 
	C472.196930,539.281738 472.191681,541.832947 476.854279,541.604919 
z"/>
<path fill="#000000" opacity="1.000000" stroke="none" 
	d="
M327.681305,623.727661 
	C333.161133,611.536133 338.505280,599.693909 343.845642,587.849915 
	C344.324951,586.786987 344.788483,585.716675 345.243988,584.643311 
	C345.956268,582.964722 347.024078,581.822327 349.037994,582.113586 
	C351.326447,582.444519 351.340790,584.201355 351.318146,585.897278 
	C351.158020,597.893250 350.994415,609.889160 350.784363,621.884338 
	C350.699799,626.712524 350.210541,631.551880 350.435699,636.361328 
	C350.618439,640.265564 349.251007,642.367188 345.679291,644.009888 
	C325.397339,653.337952 304.356140,659.566040 282.008148,661.527039 
	C258.478424,663.591919 235.392365,661.757324 212.993164,654.294434 
	C165.026978,638.313293 135.807175,605.140015 125.951286,555.768188 
	C119.604736,523.975952 120.082756,491.975586 132.171539,461.375092 
	C150.794388,414.234741 186.674072,387.849457 235.782257,378.766388 
	C272.632111,371.950653 308.002045,376.944061 341.716919,393.542480 
	C345.880493,395.592285 347.415649,398.114532 347.421143,402.765625 
	C347.436676,415.917938 348.047913,429.068787 348.314636,442.222443 
	C348.351227,444.025604 349.169220,446.497070 346.282196,447.134552 
	C343.804108,447.681732 342.762726,445.847534 341.678528,444.109436 
	C335.154541,433.650452 327.839020,423.599152 322.239716,412.668030 
	C311.986633,392.651764 295.298492,384.795258 273.972046,385.471436 
	C247.274826,386.317902 225.772507,397.144318 211.261353,420.280609 
	C203.475754,432.693848 198.322693,446.136230 195.273743,460.434692 
	C188.927109,490.198059 189.093536,520.252869 191.147095,550.400452 
	C192.560181,571.145569 196.454819,591.271912 205.634781,610.139221 
	C219.492126,638.619690 242.296158,652.700012 273.890015,652.763550 
	C281.059479,652.778015 288.155518,652.491272 295.200897,650.803650 
	C310.407684,647.161133 322.082275,639.424683 327.681305,623.727661 
z"/>
<path fill="#000000" opacity="1.000000" stroke="none" 
	d="
M355.293884,711.517822 
	C357.533447,711.459229 359.363159,711.381897 361.193146,711.311279 
	C371.756256,710.903870 377.447540,717.717041 371.719788,727.876282 
	C372.494720,728.800110 373.427124,729.731323 374.149536,730.803894 
	C377.420868,735.661255 375.503998,741.993958 369.961578,743.922180 
	C363.665405,746.112732 357.096924,745.077332 350.632812,744.900818 
	C348.550232,744.843994 347.986450,743.077820 347.978302,741.289307 
	C347.938812,732.626526 347.874939,723.962646 347.971191,715.300903 
	C348.027954,710.192261 351.830139,711.415527 355.293884,711.517822 
M365.661530,730.455933 
	C362.688599,730.414001 359.715790,730.351379 356.742737,730.338684 
	C355.213135,730.332153 353.878632,730.494507 353.272797,732.374390 
	C351.554382,737.706604 353.489990,740.608704 358.964935,740.592041 
	C360.944885,740.585999 362.959412,740.675964 364.895355,740.349609 
	C367.298706,739.944397 370.030670,739.611755 370.593842,736.495972 
	C371.181732,733.243896 369.177917,731.652161 365.661530,730.455933 
M366.998657,724.698853 
	C369.007507,723.160645 369.339905,721.090820 368.485840,718.915161 
	C367.552124,716.536560 365.344025,716.210938 363.104980,716.165344 
	C361.779388,716.138428 360.450378,716.192322 359.127808,716.119934 
	C355.706573,715.932861 353.050140,716.068726 353.007904,720.871094 
	C352.966583,725.567322 355.364471,726.041443 358.930695,725.767761 
	C361.390289,725.578918 363.911621,726.117188 366.998657,724.698853 
z"/>
<path fill="#000000" opacity="1.000000" stroke="none" 
	d="
M605.010864,744.184937 
	C602.800720,741.045410 600.873108,738.143616 598.953857,735.236389 
	C597.912720,733.659363 596.716980,732.567444 594.607422,732.371094 
	C587.878174,731.744568 587.214478,732.250000 587.107727,739.006958 
	C587.091980,740.003052 587.103210,741.001831 587.031494,741.994263 
	C586.912842,743.636047 586.341003,744.989929 584.389587,744.902710 
	C582.780090,744.830811 582.005310,743.690918 581.998413,742.230896 
	C581.954712,732.932556 581.942322,723.633545 582.009460,714.335449 
	C582.028809,711.651062 584.097168,711.140808 586.201294,711.167114 
	C590.843872,711.224976 595.492310,711.318665 600.123718,711.621277 
	C604.486633,711.906372 607.870667,714.053833 609.032898,718.362061 
	C610.262756,722.920837 609.842590,727.318604 605.427551,730.353333 
	C604.755493,730.815430 604.156006,731.383057 603.375854,732.022461 
	C604.406067,736.525330 608.409485,739.413025 609.635254,743.717712 
	C608.402710,745.727173 606.858826,745.130981 605.010864,744.184937 
M587.200867,718.922974 
	C587.200745,720.917297 587.160400,722.912720 587.212341,724.905701 
	C587.259094,726.700073 588.256714,727.679504 590.047485,727.674011 
	C593.370239,727.663818 596.716431,727.800720 600.006897,727.447693 
	C602.223389,727.209961 604.061584,725.835205 604.569214,723.419617 
	C604.999023,721.374390 604.691345,719.469238 603.027344,717.937927 
	C600.174194,715.312256 590.623535,715.370789 587.200867,718.922974 
z"/>
<path fill="#000000" opacity="1.000000" stroke="none" 
	d="
M660.420349,710.933105 
	C673.183594,710.885193 681.562500,719.457581 679.917297,730.393433 
	C678.562317,739.400146 672.161133,745.168945 663.376160,745.300354 
	C654.419739,745.434387 647.671326,739.998901 645.991699,731.298218 
	C644.393433,723.018860 649.021484,714.916199 657.134338,711.836121 
	C658.062988,711.483582 659.044067,711.269165 660.420349,710.933105 
M674.814514,725.926636 
	C673.140991,718.404419 667.079224,714.239990 660.298279,715.953979 
	C652.864563,717.833008 649.011475,724.732117 651.267700,732.123779 
	C653.010437,737.833618 658.392578,741.334351 664.311646,740.608032 
	C671.124512,739.772034 674.748718,735.025757 674.814514,725.926636 
z"/>
<path fill="#000000" opacity="1.000000" stroke="none" 
	d="
M477.617706,733.375244 
	C473.157532,730.103210 467.873993,730.238159 463.307434,728.276001 
	C459.333405,726.568542 456.381165,724.116882 456.888672,719.326843 
	C457.447479,714.052795 462.746002,710.641541 469.751953,710.850403 
	C477.565979,711.083374 481.931122,714.429749 482.301727,720.541382 
	C479.840729,722.124023 478.586823,720.638550 477.045624,718.818359 
	C473.945557,715.157104 468.211456,714.315308 464.329407,716.672607 
	C462.869690,717.559082 461.542603,718.736023 461.614807,720.572815 
	C461.681824,722.276489 463.129089,723.158630 464.556854,723.624512 
	C468.339996,724.858887 472.194550,725.872864 475.988098,727.077209 
	C480.407959,728.480408 483.867584,730.833679 483.758331,736.115417 
	C483.668610,740.453186 480.349152,743.925476 475.007904,744.927124 
	C466.397156,746.541931 456.697906,744.031738 456.159668,735.197693 
	C458.254211,733.596619 459.684082,734.134766 461.252045,736.380127 
	C464.247253,740.669434 471.359314,742.179565 475.936646,739.745911 
	C478.552948,738.354797 479.566833,736.410828 477.617706,733.375244 
z"/>
<path fill="#000000" opacity="1.000000" stroke="none" 
	d="
M529.906677,743.429688 
	C529.704224,735.679016 529.491394,728.349182 529.672119,721.028992 
	C529.764282,717.292969 528.381714,716.049377 524.735168,716.073853 
	C522.398376,716.089539 518.169556,717.526794 518.319580,713.689514 
	C518.476135,709.683411 522.677246,711.435364 525.242920,711.348083 
	C530.563354,711.167175 535.891174,711.123474 541.214844,711.164978 
	C542.966858,711.178650 545.230774,711.058411 545.117126,713.805176 
	C545.019470,716.164917 543.018250,715.985779 541.388062,716.137878 
	C534.258667,716.803162 534.258484,716.798096 534.256897,723.777649 
	C534.255554,729.606995 534.298340,735.436768 534.232727,741.265381 
	C534.200073,744.163025 533.310303,745.993469 529.906677,743.429688 
z"/>
<path fill="#000000" opacity="1.000000" stroke="none" 
	d="
M418.322510,715.384399 
	C418.330170,724.118958 418.361237,732.395203 418.301971,740.670715 
	C418.289825,742.372131 418.785522,744.766357 416.028046,744.753723 
	C413.335785,744.741394 413.713989,742.397217 413.704041,740.661865 
	C413.655487,732.220703 413.654907,723.778809 413.709473,715.337708 
	C413.719360,713.802551 413.219513,711.722473 415.739655,711.563904 
	C418.105957,711.415039 418.264923,713.180786 418.322510,715.384399 
z"/>
<path fill="#000000" opacity="1.000000" stroke="none" 
	d="
M666.606995,704.124023 
	C665.920959,707.871643 663.856567,709.864563 659.654114,709.595581 
	C659.892822,704.918579 661.946167,703.034363 666.606995,704.124023 
z"/>
</svg>